<mxfile host="65bd71144e" modified="2020-10-20T14:19:04.477Z" agent="5.0 (Windows NT 10.0; Win64; x64) AppleWebKit/537.36 (KHTML, like Gecko) Code/1.50.1 Chrome/83.0.4103.122 Electron/9.2.1 Safari/537.36" etag="RDj-vjjtt1xqTCXD2pBm" version="13.6.5">
    <diagram id="dgLJ5J_NLiBF06p59eMr" name="Page-1">
        <mxGraphModel dx="1029" dy="500" grid="1" gridSize="10" guides="1" tooltips="1" connect="1" arrows="1" fold="1" page="1" pageScale="1" pageWidth="850" pageHeight="1100" background="none" math="0" shadow="0">
            <root>
                <mxCell id="0"/>
                <mxCell id="1" parent="0"/>
                <mxCell id="2" value="" style="rounded=1;whiteSpace=wrap;html=1;fontFamily=Helvetica;fillColor=#f0a30a;strokeColor=#BD7000;fontColor=#ffffff;" parent="1" vertex="1">
                    <mxGeometry x="40" y="40" width="200" height="80" as="geometry"/>
                </mxCell>
                <mxCell id="3" value="f()" style="ellipse;whiteSpace=wrap;html=1;aspect=fixed;fontFamily=Helvetica;" parent="1" vertex="1">
                    <mxGeometry x="80" y="55" width="50" height="50" as="geometry"/>
                </mxCell>
                <mxCell id="4" value="x" style="ellipse;whiteSpace=wrap;html=1;aspect=fixed;fontFamily=Helvetica;" parent="1" vertex="1">
                    <mxGeometry x="160" y="55" width="50" height="50" as="geometry"/>
                </mxCell>
                <mxCell id="6" value="Property" style="text;html=1;strokeColor=#2D7600;fillColor=#60a917;align=center;verticalAlign=middle;whiteSpace=wrap;rounded=0;fontFamily=Helvetica;fontColor=#ffffff;" parent="1" vertex="1">
                    <mxGeometry x="150" y="140" width="70" height="20" as="geometry"/>
                </mxCell>
                <mxCell id="7" value="Method" style="text;html=1;strokeColor=#A50040;fillColor=#d80073;align=center;verticalAlign=middle;whiteSpace=wrap;rounded=0;fontFamily=Helvetica;fontColor=#ffffff;" parent="1" vertex="1">
                    <mxGeometry x="70" y="140" width="70" height="20" as="geometry"/>
                </mxCell>
                <mxCell id="11" value="" style="endArrow=classic;html=1;fontFamily=Helvetica;exitX=0.5;exitY=0;exitDx=0;exitDy=0;entryX=0.5;entryY=1;entryDx=0;entryDy=0;" parent="1" source="7" target="3" edge="1">
                    <mxGeometry width="50" height="50" relative="1" as="geometry">
                        <mxPoint x="140" y="100" as="sourcePoint"/>
                        <mxPoint x="190" y="50" as="targetPoint"/>
                    </mxGeometry>
                </mxCell>
                <mxCell id="13" value="" style="endArrow=classic;html=1;fontFamily=Helvetica;exitX=0.5;exitY=0;exitDx=0;exitDy=0;entryX=0.5;entryY=1;entryDx=0;entryDy=0;" parent="1" edge="1">
                    <mxGeometry width="50" height="50" relative="1" as="geometry">
                        <mxPoint x="184.70999999999998" y="140" as="sourcePoint"/>
                        <mxPoint x="184.70999999999998" y="105" as="targetPoint"/>
                    </mxGeometry>
                </mxCell>
                <mxCell id="14" value="ENCAPSULATION" style="text;html=1;strokeColor=#006EAF;fillColor=#1ba1e2;align=center;verticalAlign=middle;whiteSpace=wrap;rounded=0;fontFamily=Helvetica;fontColor=#ffffff;" parent="1" vertex="1">
                    <mxGeometry x="90" y="10" width="110" height="20" as="geometry"/>
                </mxCell>
                <mxCell id="15" value="hidden&lt;br&gt;innerHTML&lt;br&gt;&lt;br&gt;click()&lt;br&gt;focus()" style="rounded=1;whiteSpace=wrap;html=1;" vertex="1" parent="1">
                    <mxGeometry x="392.5" y="60" width="155" height="160" as="geometry"/>
                </mxCell>
                <mxCell id="16" value="TEXTBOX" style="rounded=1;whiteSpace=wrap;html=1;" vertex="1" parent="1">
                    <mxGeometry x="250" y="250" width="120" height="60" as="geometry"/>
                </mxCell>
                <mxCell id="17" value="CHECKBOX" style="rounded=1;whiteSpace=wrap;html=1;" vertex="1" parent="1">
                    <mxGeometry x="560" y="250" width="120" height="60" as="geometry"/>
                </mxCell>
                <mxCell id="18" value="SELECT" style="rounded=1;whiteSpace=wrap;html=1;" vertex="1" parent="1">
                    <mxGeometry x="410" y="250" width="120" height="60" as="geometry"/>
                </mxCell>
                <mxCell id="19" value="INHERITANCE" style="text;html=1;strokeColor=#006EAF;fillColor=#1ba1e2;align=center;verticalAlign=middle;whiteSpace=wrap;rounded=0;fontFamily=Helvetica;fontColor=#ffffff;" vertex="1" parent="1">
                    <mxGeometry x="415" y="20" width="110" height="20" as="geometry"/>
                </mxCell>
                <mxCell id="20" value="" style="endArrow=classic;html=1;exitX=0.5;exitY=0;exitDx=0;exitDy=0;entryX=0.5;entryY=1;entryDx=0;entryDy=0;" edge="1" parent="1" source="18" target="15">
                    <mxGeometry width="50" height="50" relative="1" as="geometry">
                        <mxPoint x="400" y="280" as="sourcePoint"/>
                        <mxPoint x="470" y="222" as="targetPoint"/>
                    </mxGeometry>
                </mxCell>
                <mxCell id="22" value="" style="endArrow=classic;html=1;exitX=1;exitY=0.095;exitDx=0;exitDy=0;exitPerimeter=0;entryX=0.075;entryY=0.974;entryDx=0;entryDy=0;entryPerimeter=0;" edge="1" parent="1" source="16" target="15">
                    <mxGeometry width="50" height="50" relative="1" as="geometry">
                        <mxPoint x="410" y="230" as="sourcePoint"/>
                        <mxPoint x="460" y="180" as="targetPoint"/>
                    </mxGeometry>
                </mxCell>
                <mxCell id="23" value="" style="endArrow=classic;html=1;exitX=0;exitY=0;exitDx=0;exitDy=0;entryX=0.914;entryY=0.987;entryDx=0;entryDy=0;entryPerimeter=0;" edge="1" parent="1" source="17" target="15">
                    <mxGeometry width="50" height="50" relative="1" as="geometry">
                        <mxPoint x="490" y="230" as="sourcePoint"/>
                        <mxPoint x="540" y="180" as="targetPoint"/>
                    </mxGeometry>
                </mxCell>
                <mxCell id="24" value="ALL THREE WILL INHERIT COMMON PROPERTY AND METHODS" style="text;html=1;strokeColor=#3700CC;fillColor=#6a00ff;align=center;verticalAlign=middle;whiteSpace=wrap;rounded=0;fontFamily=Helvetica;fontColor=#ffffff;" vertex="1" parent="1">
                    <mxGeometry x="275" y="330" width="390" height="20" as="geometry"/>
                </mxCell>
            </root>
        </mxGraphModel>
    </diagram>
</mxfile>